<mxfile host="app.diagrams.net" modified="2024-06-05T22:24:53.467Z" agent="Mozilla/5.0 (Windows NT 10.0; Win64; x64) AppleWebKit/537.36 (KHTML, like Gecko) Chrome/125.0.0.0 Safari/537.36" version="24.4.14" etag="MvfUDvqwDiRHULib-fYK" type="github">
  <diagram name="PÃ¡gina-1" id="0hU9xxPO5Po17jnfENuF">
    <mxGraphModel>
      <root>
        <mxCell id="0" />
        <mxCell id="1" parent="0" />
      </root>
    </mxGraphModel>
  </diagram>
</mxfile>
